# xmcd
#
# Track frame offsets:
#	150
#	14983
#	26510
#	40399
#	53109
#	71190
#	90029
#	106598
#	120721
#	137059
#	152739
#	169876
#	185971
#	200202
#	209803
#	223798
#	240635
#	256678
#	273158
#	285644
#
# Disc length: 3951 seconds
#
# Revision: 0
# Processed by: cddbd v1.5PL3 Copyright (c) Steve Scherf et al.
# Submitted via: EasyCDDAExtractor 5.0.5.1
#
DISCID=330f6d14
DTITLE=Eri esitt‰ji‰ - Tanssi Suosikit
DYEAR=2004
DGENRE=Pop-Folk
TTITLE0=Lokki - Arja Havakka
TTITLE1=Syysillan tuuli - Ari Klem
TTITLE2=Oot mun m‰‰r‰np‰‰ - Mikko Kilkkinen
TTITLE3=En m‰ n‰hnytk‰‰n unta - Petri Hervanto
TTITLE4=Satulinna - Jari Sillanp‰‰
TTITLE5=J‰lkemme hiekalla - Kari Tapio
TTITLE6=Nyt onni vie - Nasma Team
TTITLE7=Emma twist - Eero Aven
TTITLE8=Muistojen peili - Johanna Pakonen
TTITLE9=Niin kaus sun luotas - Sauli Lehtonen
TTITLE10=Anna hetken juovuttaa - Kaija Pohjole
TTITLE11=P‰iv‰unta - Matti Esko
TTITLE12=Mahtava per‰sin ja pulleat purjeet - Solistiyhtye Suomi
TTITLE13=Takaisinpaluu - Korsuorkesteri
TTITLE14=Juliet ja Jonatan - Anna Eriksson
TTITLE15=Maailmain - A Aallon Rytmiorkesteri
TTITLE16=J‰‰ vuodet n‰‰ taa - Mikko M‰kel‰inen
TTITLE17=Totta s‰ oot - Niina P‰iv‰nurmi
TTITLE18=Pullosta me korkki avataan - Kolibri
TTITLE19=Pennitˆn uneksija - Korsuorkesteri
EXTD=
EXTT0=
EXTT1=
EXTT2=
EXTT3=
EXTT4=
EXTT5=
EXTT6=
EXTT7=
EXTT8=
EXTT9=
EXTT10=
EXTT11=
EXTT12=
EXTT13=
EXTT14=
EXTT15=
EXTT16=
EXTT17=
EXTT18=
EXTT19=
PLAYORDER=
